<mxfile host="app.diagrams.net" modified="2024-02-06T21:49:47.676Z" agent="Mozilla/5.0 (Windows NT 10.0; Win64; x64) AppleWebKit/537.36 (KHTML, like Gecko) Chrome/121.0.0.0 Safari/537.36" etag="ZQbERhMN5Frm9BPG3Y2_" version="23.1.1" type="device">
  <diagram name="Page-1" id="UxrnvaYL-d7EwmlUT6Im">
    <mxGraphModel dx="1434" dy="738" grid="1" gridSize="10" guides="1" tooltips="1" connect="1" arrows="1" fold="1" page="1" pageScale="1" pageWidth="827" pageHeight="1169" math="0" shadow="0">
      <root>
        <mxCell id="0" />
        <mxCell id="1" parent="0" />
        <mxCell id="egLTtvMVNS7btXp8ikZZ-1" value="User" style="rounded=0;whiteSpace=wrap;html=1;" vertex="1" parent="1">
          <mxGeometry x="360" y="160" width="120" height="40" as="geometry" />
        </mxCell>
        <mxCell id="egLTtvMVNS7btXp8ikZZ-2" value="Office" style="rounded=0;whiteSpace=wrap;html=1;" vertex="1" parent="1">
          <mxGeometry x="360" y="360" width="120" height="40" as="geometry" />
        </mxCell>
        <mxCell id="egLTtvMVNS7btXp8ikZZ-3" value="Complaint" style="rounded=0;whiteSpace=wrap;html=1;" vertex="1" parent="1">
          <mxGeometry x="120" y="200" width="120" height="40" as="geometry" />
        </mxCell>
        <mxCell id="egLTtvMVNS7btXp8ikZZ-4" value="Admin" style="rounded=0;whiteSpace=wrap;html=1;" vertex="1" parent="1">
          <mxGeometry x="600" y="200" width="120" height="40" as="geometry" />
        </mxCell>
        <mxCell id="egLTtvMVNS7btXp8ikZZ-74" style="edgeStyle=orthogonalEdgeStyle;rounded=0;orthogonalLoop=1;jettySize=auto;html=1;endArrow=none;endFill=0;startArrow=classicThin;startFill=1;" edge="1" parent="1" source="egLTtvMVNS7btXp8ikZZ-5">
          <mxGeometry relative="1" as="geometry">
            <mxPoint x="220" y="560" as="targetPoint" />
          </mxGeometry>
        </mxCell>
        <mxCell id="egLTtvMVNS7btXp8ikZZ-5" value="Office User" style="rounded=0;whiteSpace=wrap;html=1;" vertex="1" parent="1">
          <mxGeometry x="160" y="640" width="120" height="40" as="geometry" />
        </mxCell>
        <mxCell id="egLTtvMVNS7btXp8ikZZ-75" style="edgeStyle=orthogonalEdgeStyle;rounded=0;orthogonalLoop=1;jettySize=auto;html=1;entryX=1;entryY=0.5;entryDx=0;entryDy=0;endArrow=none;endFill=0;startArrow=classicThin;startFill=1;" edge="1" parent="1" source="egLTtvMVNS7btXp8ikZZ-6" target="egLTtvMVNS7btXp8ikZZ-56">
          <mxGeometry relative="1" as="geometry">
            <Array as="points">
              <mxPoint x="580" y="560" />
            </Array>
          </mxGeometry>
        </mxCell>
        <mxCell id="egLTtvMVNS7btXp8ikZZ-6" value="Post" style="rounded=0;whiteSpace=wrap;html=1;" vertex="1" parent="1">
          <mxGeometry x="520" y="640" width="120" height="40" as="geometry" />
        </mxCell>
        <mxCell id="egLTtvMVNS7btXp8ikZZ-7" value="UserID" style="ellipse;whiteSpace=wrap;html=1;" vertex="1" parent="1">
          <mxGeometry x="160" y="100" width="120" height="40" as="geometry" />
        </mxCell>
        <mxCell id="egLTtvMVNS7btXp8ikZZ-8" value="Username" style="ellipse;whiteSpace=wrap;html=1;" vertex="1" parent="1">
          <mxGeometry x="280" y="40" width="120" height="40" as="geometry" />
        </mxCell>
        <mxCell id="egLTtvMVNS7btXp8ikZZ-9" value="Email" style="ellipse;whiteSpace=wrap;html=1;" vertex="1" parent="1">
          <mxGeometry x="440" y="40" width="120" height="40" as="geometry" />
        </mxCell>
        <mxCell id="egLTtvMVNS7btXp8ikZZ-10" value="Password" style="ellipse;whiteSpace=wrap;html=1;" vertex="1" parent="1">
          <mxGeometry x="560" y="100" width="120" height="40" as="geometry" />
        </mxCell>
        <mxCell id="egLTtvMVNS7btXp8ikZZ-15" value="OfficeID" style="ellipse;whiteSpace=wrap;html=1;" vertex="1" parent="1">
          <mxGeometry x="240" y="440" width="120" height="40" as="geometry" />
        </mxCell>
        <mxCell id="egLTtvMVNS7btXp8ikZZ-16" value="OfficeName" style="ellipse;whiteSpace=wrap;html=1;" vertex="1" parent="1">
          <mxGeometry x="480" y="440" width="120" height="40" as="geometry" />
        </mxCell>
        <mxCell id="egLTtvMVNS7btXp8ikZZ-17" value="ComplaintID" style="ellipse;whiteSpace=wrap;html=1;" vertex="1" parent="1">
          <mxGeometry x="20" y="340" width="120" height="40" as="geometry" />
        </mxCell>
        <mxCell id="egLTtvMVNS7btXp8ikZZ-18" value="UserID" style="ellipse;whiteSpace=wrap;html=1;" vertex="1" parent="1">
          <mxGeometry x="20" y="280" width="120" height="40" as="geometry" />
        </mxCell>
        <mxCell id="egLTtvMVNS7btXp8ikZZ-19" value="OfficeID" style="ellipse;whiteSpace=wrap;html=1;" vertex="1" parent="1">
          <mxGeometry x="20" y="400" width="120" height="40" as="geometry" />
        </mxCell>
        <mxCell id="egLTtvMVNS7btXp8ikZZ-20" value="Details" style="ellipse;whiteSpace=wrap;html=1;" vertex="1" parent="1">
          <mxGeometry x="20" y="460" width="120" height="40" as="geometry" />
        </mxCell>
        <mxCell id="egLTtvMVNS7btXp8ikZZ-21" value="Photos" style="ellipse;whiteSpace=wrap;html=1;" vertex="1" parent="1">
          <mxGeometry x="20" y="520" width="120" height="40" as="geometry" />
        </mxCell>
        <mxCell id="egLTtvMVNS7btXp8ikZZ-22" value="Videos" style="ellipse;whiteSpace=wrap;html=1;" vertex="1" parent="1">
          <mxGeometry x="20" y="580" width="120" height="40" as="geometry" />
        </mxCell>
        <mxCell id="egLTtvMVNS7btXp8ikZZ-23" value="PostID" style="ellipse;whiteSpace=wrap;html=1;" vertex="1" parent="1">
          <mxGeometry x="400" y="760" width="120" height="40" as="geometry" />
        </mxCell>
        <mxCell id="egLTtvMVNS7btXp8ikZZ-24" value="UserID" style="ellipse;whiteSpace=wrap;html=1;" vertex="1" parent="1">
          <mxGeometry x="640" y="760" width="120" height="40" as="geometry" />
        </mxCell>
        <mxCell id="egLTtvMVNS7btXp8ikZZ-25" value="OfficeID" style="ellipse;whiteSpace=wrap;html=1;" vertex="1" parent="1">
          <mxGeometry x="640" y="820" width="120" height="40" as="geometry" />
        </mxCell>
        <mxCell id="egLTtvMVNS7btXp8ikZZ-26" value="Title" style="ellipse;whiteSpace=wrap;html=1;" vertex="1" parent="1">
          <mxGeometry x="620" y="880" width="120" height="40" as="geometry" />
        </mxCell>
        <mxCell id="egLTtvMVNS7btXp8ikZZ-88" style="edgeStyle=orthogonalEdgeStyle;rounded=0;orthogonalLoop=1;jettySize=auto;html=1;entryX=0.5;entryY=1;entryDx=0;entryDy=0;endArrow=none;endFill=0;" edge="1" parent="1" source="egLTtvMVNS7btXp8ikZZ-27" target="egLTtvMVNS7btXp8ikZZ-6">
          <mxGeometry relative="1" as="geometry" />
        </mxCell>
        <mxCell id="egLTtvMVNS7btXp8ikZZ-27" value="Content" style="ellipse;whiteSpace=wrap;html=1;" vertex="1" parent="1">
          <mxGeometry x="520" y="930" width="120" height="40" as="geometry" />
        </mxCell>
        <mxCell id="egLTtvMVNS7btXp8ikZZ-28" value="CreationDate" style="ellipse;whiteSpace=wrap;html=1;" vertex="1" parent="1">
          <mxGeometry x="420" y="880" width="120" height="40" as="geometry" />
        </mxCell>
        <mxCell id="egLTtvMVNS7btXp8ikZZ-29" value="Attachment" style="ellipse;whiteSpace=wrap;html=1;" vertex="1" parent="1">
          <mxGeometry x="400" y="820" width="120" height="40" as="geometry" />
        </mxCell>
        <mxCell id="egLTtvMVNS7btXp8ikZZ-30" value="OfficeUserID" style="ellipse;whiteSpace=wrap;html=1;" vertex="1" parent="1">
          <mxGeometry x="40" y="720" width="120" height="40" as="geometry" />
        </mxCell>
        <mxCell id="egLTtvMVNS7btXp8ikZZ-31" value="UserID" style="ellipse;whiteSpace=wrap;html=1;" vertex="1" parent="1">
          <mxGeometry x="280" y="720" width="120" height="40" as="geometry" />
        </mxCell>
        <mxCell id="egLTtvMVNS7btXp8ikZZ-32" value="OfficeID" style="ellipse;whiteSpace=wrap;html=1;" vertex="1" parent="1">
          <mxGeometry x="160" y="760" width="120" height="40" as="geometry" />
        </mxCell>
        <mxCell id="egLTtvMVNS7btXp8ikZZ-33" value="AdminID" style="ellipse;whiteSpace=wrap;html=1;" vertex="1" parent="1">
          <mxGeometry x="680" y="280" width="120" height="40" as="geometry" />
        </mxCell>
        <mxCell id="egLTtvMVNS7btXp8ikZZ-34" value="Username" style="ellipse;whiteSpace=wrap;html=1;" vertex="1" parent="1">
          <mxGeometry x="680" y="360" width="120" height="40" as="geometry" />
        </mxCell>
        <mxCell id="egLTtvMVNS7btXp8ikZZ-35" value="Email" style="ellipse;whiteSpace=wrap;html=1;" vertex="1" parent="1">
          <mxGeometry x="680" y="440" width="120" height="40" as="geometry" />
        </mxCell>
        <mxCell id="egLTtvMVNS7btXp8ikZZ-36" value="Password" style="ellipse;whiteSpace=wrap;html=1;" vertex="1" parent="1">
          <mxGeometry x="680" y="520" width="120" height="40" as="geometry" />
        </mxCell>
        <mxCell id="egLTtvMVNS7btXp8ikZZ-39" value="" style="endArrow=none;html=1;rounded=0;entryX=0.5;entryY=0;entryDx=0;entryDy=0;exitX=1;exitY=0.5;exitDx=0;exitDy=0;" edge="1" parent="1" source="egLTtvMVNS7btXp8ikZZ-7" target="egLTtvMVNS7btXp8ikZZ-1">
          <mxGeometry width="50" height="50" relative="1" as="geometry">
            <mxPoint x="390" y="210" as="sourcePoint" />
            <mxPoint x="440" y="160" as="targetPoint" />
          </mxGeometry>
        </mxCell>
        <mxCell id="egLTtvMVNS7btXp8ikZZ-40" value="" style="endArrow=none;html=1;rounded=0;entryX=0.5;entryY=0;entryDx=0;entryDy=0;exitX=0.5;exitY=1;exitDx=0;exitDy=0;" edge="1" parent="1" source="egLTtvMVNS7btXp8ikZZ-8" target="egLTtvMVNS7btXp8ikZZ-1">
          <mxGeometry width="50" height="50" relative="1" as="geometry">
            <mxPoint x="390" y="210" as="sourcePoint" />
            <mxPoint x="440" y="160" as="targetPoint" />
          </mxGeometry>
        </mxCell>
        <mxCell id="egLTtvMVNS7btXp8ikZZ-41" value="" style="endArrow=none;html=1;rounded=0;entryX=0.5;entryY=0;entryDx=0;entryDy=0;exitX=0.5;exitY=1;exitDx=0;exitDy=0;" edge="1" parent="1" source="egLTtvMVNS7btXp8ikZZ-9" target="egLTtvMVNS7btXp8ikZZ-1">
          <mxGeometry width="50" height="50" relative="1" as="geometry">
            <mxPoint x="390" y="210" as="sourcePoint" />
            <mxPoint x="440" y="160" as="targetPoint" />
          </mxGeometry>
        </mxCell>
        <mxCell id="egLTtvMVNS7btXp8ikZZ-42" value="" style="endArrow=none;html=1;rounded=0;entryX=0.5;entryY=0;entryDx=0;entryDy=0;exitX=0;exitY=0.5;exitDx=0;exitDy=0;" edge="1" parent="1" source="egLTtvMVNS7btXp8ikZZ-10" target="egLTtvMVNS7btXp8ikZZ-1">
          <mxGeometry width="50" height="50" relative="1" as="geometry">
            <mxPoint x="390" y="210" as="sourcePoint" />
            <mxPoint x="440" y="160" as="targetPoint" />
          </mxGeometry>
        </mxCell>
        <mxCell id="egLTtvMVNS7btXp8ikZZ-43" value="Contains" style="rhombus;whiteSpace=wrap;html=1;" vertex="1" parent="1">
          <mxGeometry x="380" y="240" width="80" height="80" as="geometry" />
        </mxCell>
        <mxCell id="egLTtvMVNS7btXp8ikZZ-44" value="" style="endArrow=none;html=1;rounded=0;entryX=0.5;entryY=1;entryDx=0;entryDy=0;exitX=0.5;exitY=0;exitDx=0;exitDy=0;endFill=0;startArrow=classicThin;startFill=1;" edge="1" parent="1" source="egLTtvMVNS7btXp8ikZZ-2" target="egLTtvMVNS7btXp8ikZZ-43">
          <mxGeometry width="50" height="50" relative="1" as="geometry">
            <mxPoint x="390" y="400" as="sourcePoint" />
            <mxPoint x="440" y="350" as="targetPoint" />
          </mxGeometry>
        </mxCell>
        <mxCell id="egLTtvMVNS7btXp8ikZZ-45" value="" style="endArrow=none;html=1;rounded=0;entryX=0.5;entryY=0;entryDx=0;entryDy=0;exitX=0.5;exitY=1;exitDx=0;exitDy=0;" edge="1" parent="1" source="egLTtvMVNS7btXp8ikZZ-1" target="egLTtvMVNS7btXp8ikZZ-43">
          <mxGeometry width="50" height="50" relative="1" as="geometry">
            <mxPoint x="390" y="400" as="sourcePoint" />
            <mxPoint x="440" y="350" as="targetPoint" />
          </mxGeometry>
        </mxCell>
        <mxCell id="egLTtvMVNS7btXp8ikZZ-46" value="" style="endArrow=none;html=1;rounded=0;entryX=1;entryY=0.5;entryDx=0;entryDy=0;exitX=0;exitY=0.5;exitDx=0;exitDy=0;endFill=0;startArrow=classicThin;startFill=1;" edge="1" parent="1" source="egLTtvMVNS7btXp8ikZZ-4" target="egLTtvMVNS7btXp8ikZZ-43">
          <mxGeometry width="50" height="50" relative="1" as="geometry">
            <mxPoint x="390" y="400" as="sourcePoint" />
            <mxPoint x="440" y="350" as="targetPoint" />
          </mxGeometry>
        </mxCell>
        <mxCell id="egLTtvMVNS7btXp8ikZZ-47" value="" style="endArrow=classicThin;html=1;rounded=0;exitX=0;exitY=0.5;exitDx=0;exitDy=0;entryX=1;entryY=0.5;entryDx=0;entryDy=0;startArrow=none;startFill=0;endFill=1;" edge="1" parent="1" source="egLTtvMVNS7btXp8ikZZ-43" target="egLTtvMVNS7btXp8ikZZ-3">
          <mxGeometry width="50" height="50" relative="1" as="geometry">
            <mxPoint x="390" y="200" as="sourcePoint" />
            <mxPoint x="440" y="150" as="targetPoint" />
          </mxGeometry>
        </mxCell>
        <mxCell id="egLTtvMVNS7btXp8ikZZ-55" style="edgeStyle=orthogonalEdgeStyle;rounded=0;orthogonalLoop=1;jettySize=auto;html=1;exitX=0.5;exitY=1;exitDx=0;exitDy=0;" edge="1" parent="1" source="egLTtvMVNS7btXp8ikZZ-20" target="egLTtvMVNS7btXp8ikZZ-20">
          <mxGeometry relative="1" as="geometry" />
        </mxCell>
        <mxCell id="egLTtvMVNS7btXp8ikZZ-56" value="Contains" style="rhombus;whiteSpace=wrap;html=1;" vertex="1" parent="1">
          <mxGeometry x="380" y="520" width="80" height="80" as="geometry" />
        </mxCell>
        <mxCell id="egLTtvMVNS7btXp8ikZZ-57" value="" style="endArrow=none;html=1;rounded=0;entryX=0.5;entryY=1;entryDx=0;entryDy=0;" edge="1" parent="1" target="egLTtvMVNS7btXp8ikZZ-3">
          <mxGeometry width="50" height="50" relative="1" as="geometry">
            <mxPoint x="180" y="600" as="sourcePoint" />
            <mxPoint x="440" y="450" as="targetPoint" />
          </mxGeometry>
        </mxCell>
        <mxCell id="egLTtvMVNS7btXp8ikZZ-58" value="" style="endArrow=none;html=1;rounded=0;entryX=1;entryY=0.5;entryDx=0;entryDy=0;" edge="1" parent="1" target="egLTtvMVNS7btXp8ikZZ-22">
          <mxGeometry width="50" height="50" relative="1" as="geometry">
            <mxPoint x="180" y="600" as="sourcePoint" />
            <mxPoint x="440" y="450" as="targetPoint" />
          </mxGeometry>
        </mxCell>
        <mxCell id="egLTtvMVNS7btXp8ikZZ-59" value="" style="endArrow=none;html=1;rounded=0;exitX=1;exitY=0.5;exitDx=0;exitDy=0;" edge="1" parent="1" source="egLTtvMVNS7btXp8ikZZ-21">
          <mxGeometry width="50" height="50" relative="1" as="geometry">
            <mxPoint x="390" y="500" as="sourcePoint" />
            <mxPoint x="180" y="540" as="targetPoint" />
          </mxGeometry>
        </mxCell>
        <mxCell id="egLTtvMVNS7btXp8ikZZ-60" value="" style="endArrow=none;html=1;rounded=0;" edge="1" parent="1">
          <mxGeometry width="50" height="50" relative="1" as="geometry">
            <mxPoint x="180" y="480" as="sourcePoint" />
            <mxPoint x="140" y="480" as="targetPoint" />
          </mxGeometry>
        </mxCell>
        <mxCell id="egLTtvMVNS7btXp8ikZZ-61" value="" style="endArrow=none;html=1;rounded=0;" edge="1" parent="1">
          <mxGeometry width="50" height="50" relative="1" as="geometry">
            <mxPoint x="180" y="420" as="sourcePoint" />
            <mxPoint x="140" y="420" as="targetPoint" />
          </mxGeometry>
        </mxCell>
        <mxCell id="egLTtvMVNS7btXp8ikZZ-62" value="" style="endArrow=none;html=1;rounded=0;exitX=1;exitY=0.5;exitDx=0;exitDy=0;" edge="1" parent="1" source="egLTtvMVNS7btXp8ikZZ-17">
          <mxGeometry width="50" height="50" relative="1" as="geometry">
            <mxPoint x="190" y="390" as="sourcePoint" />
            <mxPoint x="180" y="360" as="targetPoint" />
          </mxGeometry>
        </mxCell>
        <mxCell id="egLTtvMVNS7btXp8ikZZ-63" value="" style="endArrow=none;html=1;rounded=0;" edge="1" parent="1">
          <mxGeometry width="50" height="50" relative="1" as="geometry">
            <mxPoint x="180" y="300" as="sourcePoint" />
            <mxPoint x="140" y="300" as="targetPoint" />
          </mxGeometry>
        </mxCell>
        <mxCell id="egLTtvMVNS7btXp8ikZZ-64" value="" style="endArrow=none;html=1;rounded=0;" edge="1" parent="1">
          <mxGeometry width="50" height="50" relative="1" as="geometry">
            <mxPoint x="660" y="540" as="sourcePoint" />
            <mxPoint x="660" y="240" as="targetPoint" />
          </mxGeometry>
        </mxCell>
        <mxCell id="egLTtvMVNS7btXp8ikZZ-65" value="" style="endArrow=none;html=1;rounded=0;exitX=0;exitY=0.5;exitDx=0;exitDy=0;" edge="1" parent="1" source="egLTtvMVNS7btXp8ikZZ-36">
          <mxGeometry width="50" height="50" relative="1" as="geometry">
            <mxPoint x="610" y="590" as="sourcePoint" />
            <mxPoint x="660" y="540" as="targetPoint" />
          </mxGeometry>
        </mxCell>
        <mxCell id="egLTtvMVNS7btXp8ikZZ-66" value="" style="endArrow=none;html=1;rounded=0;" edge="1" parent="1">
          <mxGeometry width="50" height="50" relative="1" as="geometry">
            <mxPoint x="660" y="460" as="sourcePoint" />
            <mxPoint x="680" y="460" as="targetPoint" />
          </mxGeometry>
        </mxCell>
        <mxCell id="egLTtvMVNS7btXp8ikZZ-67" value="" style="endArrow=none;html=1;rounded=0;" edge="1" parent="1">
          <mxGeometry width="50" height="50" relative="1" as="geometry">
            <mxPoint x="660" y="380" as="sourcePoint" />
            <mxPoint x="680" y="380" as="targetPoint" />
          </mxGeometry>
        </mxCell>
        <mxCell id="egLTtvMVNS7btXp8ikZZ-68" value="" style="endArrow=none;html=1;rounded=0;" edge="1" parent="1">
          <mxGeometry width="50" height="50" relative="1" as="geometry">
            <mxPoint x="660" y="300" as="sourcePoint" />
            <mxPoint x="680" y="300" as="targetPoint" />
          </mxGeometry>
        </mxCell>
        <mxCell id="egLTtvMVNS7btXp8ikZZ-70" value="" style="endArrow=none;html=1;rounded=0;exitX=0.5;exitY=0;exitDx=0;exitDy=0;" edge="1" parent="1" source="egLTtvMVNS7btXp8ikZZ-15">
          <mxGeometry width="50" height="50" relative="1" as="geometry">
            <mxPoint x="370" y="450" as="sourcePoint" />
            <mxPoint x="420" y="400" as="targetPoint" />
          </mxGeometry>
        </mxCell>
        <mxCell id="egLTtvMVNS7btXp8ikZZ-71" value="" style="endArrow=none;html=1;rounded=0;exitX=0.5;exitY=0;exitDx=0;exitDy=0;" edge="1" parent="1" source="egLTtvMVNS7btXp8ikZZ-16">
          <mxGeometry width="50" height="50" relative="1" as="geometry">
            <mxPoint x="370" y="450" as="sourcePoint" />
            <mxPoint x="420" y="400" as="targetPoint" />
          </mxGeometry>
        </mxCell>
        <mxCell id="egLTtvMVNS7btXp8ikZZ-72" value="" style="endArrow=none;html=1;rounded=0;exitX=0.5;exitY=0;exitDx=0;exitDy=0;" edge="1" parent="1" source="egLTtvMVNS7btXp8ikZZ-56">
          <mxGeometry width="50" height="50" relative="1" as="geometry">
            <mxPoint x="370" y="450" as="sourcePoint" />
            <mxPoint x="420" y="400" as="targetPoint" />
          </mxGeometry>
        </mxCell>
        <mxCell id="egLTtvMVNS7btXp8ikZZ-73" value="" style="endArrow=none;html=1;rounded=0;" edge="1" parent="1">
          <mxGeometry width="50" height="50" relative="1" as="geometry">
            <mxPoint x="220" y="560" as="sourcePoint" />
            <mxPoint x="380" y="560" as="targetPoint" />
          </mxGeometry>
        </mxCell>
        <mxCell id="egLTtvMVNS7btXp8ikZZ-76" value="" style="endArrow=none;html=1;rounded=0;exitX=0.5;exitY=0;exitDx=0;exitDy=0;" edge="1" parent="1" source="egLTtvMVNS7btXp8ikZZ-32">
          <mxGeometry width="50" height="50" relative="1" as="geometry">
            <mxPoint x="170" y="730" as="sourcePoint" />
            <mxPoint x="220" y="680" as="targetPoint" />
          </mxGeometry>
        </mxCell>
        <mxCell id="egLTtvMVNS7btXp8ikZZ-77" value="" style="endArrow=none;html=1;rounded=0;entryX=0.5;entryY=1;entryDx=0;entryDy=0;exitX=0.5;exitY=0;exitDx=0;exitDy=0;" edge="1" parent="1" source="egLTtvMVNS7btXp8ikZZ-30" target="egLTtvMVNS7btXp8ikZZ-5">
          <mxGeometry width="50" height="50" relative="1" as="geometry">
            <mxPoint x="490" y="810" as="sourcePoint" />
            <mxPoint x="540" y="760" as="targetPoint" />
          </mxGeometry>
        </mxCell>
        <mxCell id="egLTtvMVNS7btXp8ikZZ-78" value="" style="endArrow=none;html=1;rounded=0;exitX=0.5;exitY=0;exitDx=0;exitDy=0;" edge="1" parent="1" source="egLTtvMVNS7btXp8ikZZ-31">
          <mxGeometry width="50" height="50" relative="1" as="geometry">
            <mxPoint x="170" y="730" as="sourcePoint" />
            <mxPoint x="220" y="680" as="targetPoint" />
          </mxGeometry>
        </mxCell>
        <mxCell id="egLTtvMVNS7btXp8ikZZ-80" value="" style="endArrow=none;html=1;rounded=0;exitX=0.5;exitY=0;exitDx=0;exitDy=0;" edge="1" parent="1" source="egLTtvMVNS7btXp8ikZZ-23">
          <mxGeometry width="50" height="50" relative="1" as="geometry">
            <mxPoint x="530" y="730" as="sourcePoint" />
            <mxPoint x="580" y="680" as="targetPoint" />
          </mxGeometry>
        </mxCell>
        <mxCell id="egLTtvMVNS7btXp8ikZZ-81" value="" style="endArrow=none;html=1;rounded=0;exitX=0.5;exitY=0;exitDx=0;exitDy=0;" edge="1" parent="1" source="egLTtvMVNS7btXp8ikZZ-24">
          <mxGeometry width="50" height="50" relative="1" as="geometry">
            <mxPoint x="530" y="730" as="sourcePoint" />
            <mxPoint x="580" y="680" as="targetPoint" />
          </mxGeometry>
        </mxCell>
        <mxCell id="egLTtvMVNS7btXp8ikZZ-82" value="" style="endArrow=none;html=1;rounded=0;exitX=1;exitY=0.5;exitDx=0;exitDy=0;" edge="1" parent="1" source="egLTtvMVNS7btXp8ikZZ-29">
          <mxGeometry width="50" height="50" relative="1" as="geometry">
            <mxPoint x="530" y="730" as="sourcePoint" />
            <mxPoint x="580" y="680" as="targetPoint" />
          </mxGeometry>
        </mxCell>
        <mxCell id="egLTtvMVNS7btXp8ikZZ-84" value="" style="endArrow=none;html=1;rounded=0;entryX=0.5;entryY=1;entryDx=0;entryDy=0;exitX=0;exitY=0.5;exitDx=0;exitDy=0;" edge="1" parent="1" source="egLTtvMVNS7btXp8ikZZ-25" target="egLTtvMVNS7btXp8ikZZ-6">
          <mxGeometry width="50" height="50" relative="1" as="geometry">
            <mxPoint x="560" y="730" as="sourcePoint" />
            <mxPoint x="610" y="680" as="targetPoint" />
          </mxGeometry>
        </mxCell>
        <mxCell id="egLTtvMVNS7btXp8ikZZ-86" value="" style="endArrow=none;html=1;rounded=0;exitX=1;exitY=0.5;exitDx=0;exitDy=0;" edge="1" parent="1" source="egLTtvMVNS7btXp8ikZZ-28">
          <mxGeometry width="50" height="50" relative="1" as="geometry">
            <mxPoint x="530" y="730" as="sourcePoint" />
            <mxPoint x="580" y="680" as="targetPoint" />
          </mxGeometry>
        </mxCell>
        <mxCell id="egLTtvMVNS7btXp8ikZZ-87" value="" style="endArrow=none;html=1;rounded=0;exitX=0;exitY=0.5;exitDx=0;exitDy=0;" edge="1" parent="1" source="egLTtvMVNS7btXp8ikZZ-26">
          <mxGeometry width="50" height="50" relative="1" as="geometry">
            <mxPoint x="530" y="730" as="sourcePoint" />
            <mxPoint x="580" y="680" as="targetPoint" />
          </mxGeometry>
        </mxCell>
      </root>
    </mxGraphModel>
  </diagram>
</mxfile>
